<svg width="60" height="61" viewBox="0 0 60 61" fill="none" xmlns="http://www.w3.org/2000/svg">
<rect x="5" y="29.5" width="3" height="2" fill="#B0E9DD"/>
<path fill-rule="evenodd" clip-rule="evenodd" d="M32.95 31.5C32.7184 30.3589 31.7095 29.5 30.5 29.5C29.2905 29.5 28.2816 30.3589 28.05 31.5H26.0275C26.2762 29.25 28.1837 27.5 30.5 27.5C32.8163 27.5 34.7238 29.25 34.9725 31.5H32.95Z" fill="#B0E9DD"/>
<path fill-rule="evenodd" clip-rule="evenodd" d="M50.3974 35.9686C48.8537 38.1077 46.3395 39.5 43.5 39.5C38.8056 39.5 35 35.6944 35 31C35 26.3056 38.8056 22.5 43.5 22.5C45.5926 22.5 47.5087 23.2562 48.9897 24.5103L50.4079 23.0921C48.5616 21.478 46.145 20.5 43.5 20.5C37.701 20.5 33 25.201 33 31C33 36.799 37.701 41.5 43.5 41.5C46.8911 41.5 49.9068 39.8924 51.8265 37.3977L50.3974 35.9686Z" fill="#B0E9DD"/>
<path fill-rule="evenodd" clip-rule="evenodd" d="M25.9902 31.4113C25.7757 35.9147 22.0565 39.5 17.5 39.5C12.8056 39.5 9 35.6944 9 31C9 26.3056 12.8056 22.5 17.5 22.5C19.5927 22.5 21.5087 23.2562 22.9897 24.5103L24.4079 23.0922C22.5616 21.478 20.145 20.5 17.5 20.5C11.701 20.5 7 25.201 7 31C7 36.799 11.701 41.5 17.5 41.5C23.1672 41.5 27.7858 37.0102 27.9928 31.3935L25.9902 31.4113Z" fill="#B0E9DD"/>
</svg>
