<svg width="68" height="68" viewBox="0 0 68 68" fill="none" xmlns="http://www.w3.org/2000/svg">
<g filter="url(#filter0_d)">
<rect x="9" y="29" width="3" height="2" fill="white"/>
<path fill-rule="evenodd" clip-rule="evenodd" d="M36.95 31C36.7184 29.8589 35.7095 29 34.5 29C33.2905 29 32.2816 29.8589 32.05 31H30.0275C30.2762 28.75 32.1837 27 34.5 27C36.8163 27 38.7238 28.75 38.9725 31H36.95Z" fill="white"/>
<path fill-rule="evenodd" clip-rule="evenodd" d="M54.3974 35.4686C52.8537 37.6077 50.3395 39 47.5 39C42.8056 39 39 35.1944 39 30.5C39 25.8056 42.8056 22 47.5 22C49.5926 22 51.5087 22.7562 52.9897 24.0103L54.4079 22.5921C52.5616 20.978 50.145 20 47.5 20C41.701 20 37 24.701 37 30.5C37 36.299 41.701 41 47.5 41C50.8911 41 53.9068 39.3924 55.8265 36.8977L54.3974 35.4686Z" fill="white"/>
<path fill-rule="evenodd" clip-rule="evenodd" d="M29.9902 30.9113C29.7757 35.4147 26.0565 39 21.5 39C16.8056 39 13 35.1944 13 30.5C13 25.8056 16.8056 22 21.5 22C23.5927 22 25.5087 22.7562 26.9897 24.0103L28.4079 22.5922C26.5616 20.978 24.145 20 21.5 20C15.701 20 11 24.701 11 30.5C11 36.299 15.701 41 21.5 41C27.1672 41 31.7858 36.5102 31.9928 30.8935L29.9902 30.9113Z" fill="white"/>
<circle cx="34" cy="30" r="29" stroke="white" stroke-width="2"/>
</g>
<defs>
<filter id="filter0_d" x="0" y="0" width="68" height="68" filterUnits="userSpaceOnUse" color-interpolation-filters="sRGB">
<feFlood flood-opacity="0" result="BackgroundImageFix"/>
<feColorMatrix in="SourceAlpha" type="matrix" values="0 0 0 0 0 0 0 0 0 0 0 0 0 0 0 0 0 0 127 0"/>
<feOffset dy="4"/>
<feGaussianBlur stdDeviation="2"/>
<feColorMatrix type="matrix" values="0 0 0 0 0 0 0 0 0 0 0 0 0 0 0 0 0 0 0.25 0"/>
<feBlend mode="normal" in2="BackgroundImageFix" result="effect1_dropShadow"/>
<feBlend mode="normal" in="SourceGraphic" in2="effect1_dropShadow" result="shape"/>
</filter>
</defs>
</svg>
